<svg width="1024" height="1024" viewBox="0 0 1024 1024" fill="none" xmlns="http://www.w3.org/2000/svg">
  <defs>
    <linearGradient id="bg" x1="184" y1="104" x2="848" y2="924" gradientUnits="userSpaceOnUse">
      <stop offset="0" stop-color="#EAF4FF"/>
      <stop offset="0.5" stop-color="#D8F0EC"/>
      <stop offset="1" stop-color="#DDE8FF"/>
    </linearGradient>
    <linearGradient id="folderBack" x1="230" y1="286" x2="768" y2="680" gradientUnits="userSpaceOnUse">
      <stop offset="0" stop-color="#36C6D3"/>
      <stop offset="1" stop-color="#1477C9"/>
    </linearGradient>
    <linearGradient id="folderFront" x1="210" y1="390" x2="804" y2="788" gradientUnits="userSpaceOnUse">
      <stop offset="0" stop-color="#2ED6B8"/>
      <stop offset="1" stop-color="#286DE8"/>
    </linearGradient>
    <linearGradient id="mark" x1="512" y1="278" x2="512" y2="706" gradientUnits="userSpaceOnUse">
      <stop offset="0" stop-color="#FFFFFF"/>
      <stop offset="1" stop-color="#E8F5FF"/>
    </linearGradient>
    <filter id="appShadow" x="38" y="50" width="948" height="952" filterUnits="userSpaceOnUse" color-interpolation-filters="sRGB">
      <feDropShadow dx="0" dy="18" stdDeviation="20" flood-color="#0F172A" flood-opacity="0.15"/>
      <feDropShadow dx="0" dy="4" stdDeviation="8" flood-color="#0F172A" flood-opacity="0.1"/>
    </filter>
    <filter id="folderShadow" x="154" y="246" width="716" height="596" filterUnits="userSpaceOnUse" color-interpolation-filters="sRGB">
      <feDropShadow dx="0" dy="24" stdDeviation="24" flood-color="#0F2A45" flood-opacity="0.22"/>
      <feDropShadow dx="0" dy="6" stdDeviation="10" flood-color="#0F2A45" flood-opacity="0.16"/>
    </filter>
    <filter id="markShadow" x="366" y="220" width="292" height="544" filterUnits="userSpaceOnUse" color-interpolation-filters="sRGB">
      <feDropShadow dx="0" dy="16" stdDeviation="18" flood-color="#12395D" flood-opacity="0.22"/>
      <feDropShadow dx="0" dy="3" stdDeviation="5" flood-color="#12395D" flood-opacity="0.14"/>
    </filter>
    <clipPath id="appMask">
      <rect x="72" y="72" width="880" height="880" rx="208"/>
    </clipPath>
  </defs>

  <g filter="url(#appShadow)">
    <g clip-path="url(#appMask)">
      <rect x="72" y="72" width="880" height="880" rx="208" fill="url(#bg)"/>
      <circle cx="782" cy="234" r="164" fill="#FFFFFF" fill-opacity="0.46"/>
      <circle cx="230" cy="788" r="220" fill="#BDECE6" fill-opacity="0.5"/>

      <g filter="url(#folderShadow)">
        <path d="M197 348C197 311.55 226.55 282 263 282H407C427.62 282 446.77 292.66 457.63 310.18L489.5 361.6H757C793.45 361.6 823 391.15 823 427.6V512H197V348Z" fill="url(#folderBack)"/>
        <path d="M184 448C184 411.55 213.55 382 250 382H774C810.45 382 840 411.55 840 448V702C840 747.29 803.29 784 758 784H266C220.71 784 184 747.29 184 702V448Z" fill="url(#folderFront)"/>
        <path d="M184 448C184 411.55 213.55 382 250 382H774C810.45 382 840 411.55 840 448V486H184V448Z" fill="#FFFFFF" fill-opacity="0.25"/>
      </g>

      <g filter="url(#markShadow)">
        <path d="M512 260L634 706L512 642L390 706L512 260Z" fill="url(#mark)"/>
        <path d="M512 339L572 600L512 568L452 600L512 339Z" fill="#006A6A" fill-opacity="0.2"/>
        <circle cx="512" cy="518" r="46" fill="#FFFFFF"/>
        <circle cx="512" cy="518" r="20" fill="#008D91"/>
      </g>

      <rect x="72" y="72" width="880" height="880" rx="208" stroke="#FFFFFF" stroke-opacity="0.7" stroke-width="2"/>
    </g>
  </g>
</svg>
